inDegrees=yes
name=lift_forw_l_res.mot
DataType=double
version=3
OpenSimVersion=4.4-2022-07-23-0e9fedc
endheader
time	pelvis_tilt	pelvis_list	pelvis_rotation	pelvis_tx	pelvis_ty	pelvis_tz	hip_flexion_r	hip_adduction_r	hip_rotation_r	knee_angle_r	knee_angle_r_beta	ankle_angle_r	subtalar_angle_r	mtp_angle_r	hip_flexion_l	hip_adduction_l	hip_rotation_l	knee_angle_l	knee_angle_l_beta	ankle_angle_l	subtalar_angle_l	mtp_angle_l	lumbar_extension	lumbar_bending	lumbar_rotation	arm_flex_r	arm_add_r	arm_rot_r	elbow_flex_r	pro_sup_r	wrist_flex_r	wrist_dev_r	arm_flex_l	arm_add_l	arm_rot_l	elbow_flex_l	pro_sup_l	wrist_flex_l	wrist_dev_l
0	0.003847499668795442	0.004896865683163977	90.00731808924228	0	0.9399999999999999	0	1.319652427664491	-0.6947771426076752	0	6.007128356905914	0.1048441684179252	-0.4307987936841211	0	0	1.319652427664491	-0.6947771426076752	0	6.007128356905914	0.1048441684179252	-0.4307987936841211	0	0	0.02582518152747618	-0.001568611597969296	-0.01189031004476069	0	-0.1517784132439959	0	8.282756898196666	8.104032673811686	0	0	-2.203195988046808	5.54555201526663	1.018217642992352	0.05112913116503352	8.104032673811686	0	0
1	-0.0005092929661955875	-0.02111333183813549	89.99335279797721	0	0.9399999999999999	0	1.332029244416404	-0.7012373513090883	0	6.048248783141493	0.1055618552455596	-0.4347824439234982	0	0	1.332029244416404	-0.7012373513090883	0	6.048248783141493	0.1055618552455596	-0.4347824439234982	0	0	0.03193288410857559	0.02329714774595995	0.0135577470753435	0	-0.1532359822571731	0	8.341866532765271	8.161809974091225	0	0	-1.805945988091792	4.935457756338706	0.7617931102946129	0.05882712150249834	8.161809974091225	0	0
2	0.01037736020058226	-0.0038695054397576	90.00276825365822	0	0.9399999999999999	0	44.04308940300961	-10.02644776283319	0	59.82567878043179	1.04415507195904	-5.004564497165342	0	0	44.04308940300961	-10.02644776283319	0	59.82567878043179	1.04415507195904	-5.004564497165342	0	0	4.076584475774624e-05	0.009904843377037736	0.007250521525940071	0	-12.49458264383463	0	75.83399663219237	45.09455331621889	0	0	-2.158236115681587	4.897510589769958	0.7361119984010306	0.07040957728550251	45.09455331621889	0	0
3	0.008727618321978532	0.01850766193344893	90.00085265818637	0	0.9399999999999999	0	44.04315550868778	-10.02644136527776	0	59.82568821565634	1.044155236634775	-5.004563056455609	0	0	44.04315550868778	-10.02644136527776	0	59.82568821565634	1.044155236634775	-5.004563056455609	0	0	0.005592448386144399	0.002681209929377338	0.003383591601581328	0	-12.49467113142339	0	75.83393903237496	45.09453522968559	0	0	-2.197917767371795	4.89342870551569	0.7336719822267174	0.07134681973371586	45.09453522968559	0	0
4	-0.0005241780605400729	-0.00507014391030134	90.00017716624954	0	0.9399999999999999	0	44.04328813623462	-10.02642852193095	0	59.82570714129795	1.044155566949534	-5.004560163603356	0	0	44.04328813623462	-10.02642852193095	0	59.82570714129795	1.044155566949534	-5.004560163603356	0	0	0.01125202684328718	-0.002157410235573851	0.002997832404398234	0	-12.49484863682072	0	75.83382347010371	45.09449892585935	0	0	-2.173624415869472	4.89929672304048	0.7311578231089684	0.07062322158313362	45.09449892585935	0	0
5	-0.0006649208791106233	-0.004830989994184203	90.00026546923777	0	0.9399999999999999	0	44.04342250728014	-10.02641550555742	0	59.82572630545607	1.044155901427191	-5.004557231857805	0	0	44.04342250728014	-10.02641550555742	0	59.82572630545607	1.044155901427191	-5.004557231857805	0	0	0.009931789249832606	-0.002914478543629691	0.002189007609384935	0	-12.49502841545182	0	75.83370638867454	45.0944621333824	0	0	-2.171832518052679	4.899257787431718	0.7302179394806327	0.07058028586538387	45.0944621333824	0	0
6	-0.0008265149441088269	-0.00444280768127821	90.00039194512613	0	0.9399999999999999	0	44.04355429231936	-10.02640274494126	0	59.82574510220407	1.044156229492333	-5.004554358186097	0	0	44.04355429231936	-10.02640274494126	0	59.82574510220407	1.044156229492333	-5.004554358186097	0	0	0.009624186072084132	-0.002990786608654406	0.001886443611680283	0	-12.49520475185322	0	75.83359156050602	45.09442605971416	0	0	-2.172140700609559	4.898929386961448	0.7301058662227525	0.07058661550601619	45.09442605971416	0	0
7	-0.006023181633546402	-0.01760102980179109	89.9997286563337	0	0.9399999999999999	0	44.04375733745703	-10.02638316918368	0	59.82577416349437	1.044156736707533	-5.004549953496123	0	0	44.04375733745703	-10.02638316918368	0	59.82577416349437	1.044156736707533	-5.004549953496123	0	0	0.0227688763912139	-0.009763636680687216	-0.003367289678900377	0	-12.49547712335887	0	75.8334146412694	45.09437067756324	0	0	-1.881150721729745	5.070776777648618	1.009238919196796	0.0868587485364401	45.09437067756324	0	0
8	0.003883486580832905	-0.003792237147426694	89.99680007796431	0	0.9399999999999999	0	44.04402980356635	-10.02635684900442	0	59.82581308312604	1.044157415983249	-5.004544029841218	0	0	44.04402980356635	-10.02635684900442	0	59.82581308312604	1.044157415983249	-5.004544029841218	0	0	0.003868838486376209	0.00237347893464053	0.003568999526837176	0	-12.49584212926074	0	75.83317723352117	45.09429623528313	0	0	-1.628112083606075	4.310099368889747	0.5401460162905537	0.09112258305992964	45.09429623528313	0	0
9	0.005774887418010165	-0.01618278195793565	90.00436102044891	0	0.9399999999999999	0	44.04660380011778	-10.02618146261436	0	59.82627464055749	1.044165471680115	-5.004507501619292	0	0	44.04660380011778	-10.02618146261436	0	59.82627464055749	1.044165471680115	-5.004507501619292	0	0	0.01069016463202282	0.03227608764224945	-0.005402903808288713	0	-12.49990776947456	0	75.83093438613091	45.09376529547294	0	0	-1.457127394475616	1.699807447569514	1.040762482283401	0.06114523359657393	45.09376529547294	0	0
10	-0.03617746469434206	0.01943261474191215	89.99492464875655	0	0.9399999999999999	0	44.04691134948762	-10.02615189475916	0	59.8263185774695	1.044166238523893	-5.004500858504445	0	0	44.04691134948762	-10.02615189475916	0	59.8263185774695	1.044166238523893	-5.004500858504445	0	0	-0.0358045746564926	-0.05461761805767942	0.001929055533759378	0	-12.50032028248456	0	75.83066640922193	45.09368156239319	0	0	-0.1910520966747111	-0.07315197167806697	1.152621660482992	0.1869572568309742	45.09368156239319	0	0
11	0.003057349696326869	0.006918933185789726	90.01400060734399	0	0.9399999999999999	0	44.05099032805784	-10.02588430938472	0	59.82705960066308	1.044179171818455	-5.004445778684476	0	0	44.05099032805784	-10.02588430938472	0	59.82705960066308	1.044179171818455	-5.004445778684476	0	0	-0.02649100301721667	0.006508134552586238	-0.02261298849965102	0	-12.50684102679701	0	75.82711219226366	45.09286409158843	0	0	0.9189797562548513	-0.03413907323254151	1.874509497824593	2.754861211257915	45.09286409158843	0	0
12	-0.009236690039205632	-0.00233281972595295	89.99112523365802	0	0.9399999999999999	0	44.05927046989334	-10.02533010893632	0	59.82854117645126	1.044205030194076	-5.004331218099821	0	0	44.05927046989334	-10.02533010893632	0	59.82854117645126	1.044205030194076	-5.004331218099821	0	0	-0.3084897371575896	-0.819384478459475	0.6883803147423995	0	-12.51996206012744	0	75.8198973013543	45.09117759164533	0	0	1.010827376943601	-2.943041294410865	3.768182185915943	7.004940518166435	45.09117759164533	0	0
13	0.005069331781942949	0.012529931148291	89.9995600112107	0	0.9399999999999999	0	44.06413310114418	-10.02500481173489	0	59.8294079367165	1.04422015801453	-5.004264005399111	0	0	44.06413310114418	-10.02500481173489	0	59.8294079367165	1.04422015801453	-5.004264005399111	0	0	-0.3274257747426073	-0.806139030107628	0.6877141357140968	0	-12.52766563861121	0	75.81566025398662	45.09018741403163	0	0	1.591103697279369	-5.042313797085062	4.949936258418403	10.34589436878522	45.09018741403163	0	0
14	0.0007463653903501205	0.01474594246079083	89.99129824716718	0	0.9399999999999999	0	44.07196157663445	-10.02449484415528	0	59.83081845971439	1.044244776285018	-5.004159428582766	0	0	44.07196157663445	-10.02449484415528	0	59.83081845971439	1.044244776285018	-5.004159428582766	0	0	-0.3330712426651726	-0.8071972675191078	0.6913242332531914	0	-12.5401853022697	0	75.80883891323161	45.088625709461	0	0	2.532741165157391	-7.212547359503808	6.650726946029376	14.67094434630192	45.088625709461	0	0
15	0.001213099026003951	0.01380016135391629	89.9936352061343	0	0.9399999999999999	0	44.07661173357658	-10.02418935641758	0	59.83164684784741	1.044259234385424	-5.004096715201758	0	0	44.07661173357658	-10.02418935641758	0	59.83164684784741	1.044259234385424	-5.004096715201758	0	0	-0.3311169849580068	-0.8062393515389101	0.6929298141137262	0	-12.54758721825806	0	75.8047870022674	45.0876914051863	0	0	3.322176847181928	-7.682671467440399	8.064819709496311	18.17611723418657	45.0876914051863	0	0
16	0.007839157733904445	0.01907793168083485	89.99776452972949	0	0.9399999999999999	0	44.08064198339765	-10.02392476105837	0	59.8323627381508	1.044271729028301	-5.004042434427188	0	0	44.08064198339765	-10.02392476105837	0	59.8323627381508	1.044271729028301	-5.004042434427188	0	0	-0.3383374708681859	-0.7953703962259249	0.6906282678678139	0	-12.55399972017374	0	75.80127524705127	45.08688185399822	0	0	4.8048237561104	-9.735471717969176	10.0205017024765	21.87978409458089	45.08688185399822	0	0
17	0.02342709322666544	0.03200199939583902	90.0098635988664	0	0.9399999999999999	0	44.08491536327249	-10.02365810163147	0	59.83313860401443	1.044285270442175	-5.003988499638848	0	0	44.08491536327249	-10.02365810163147	0	59.83313860401443	1.044285270442175	-5.003988499638848	0	0	-0.3598981274733516	-0.7814111692556367	0.6925903075252563	0	-12.56092290077832	0	75.7975516317909	45.0860565792152	0	0	5.684538364001363	-10.76333893327269	10.84562243308573	24.67632749448187	45.0860565792152	0	0
18	0.01179177330727596	0.01906436138917365	89.99997981054372	0	0.9399999999999999	0	44.08868143281857	-10.02342230905603	0	59.83381946878809	1.044297153774237	-5.003940775557079	0	0	44.08868143281857	-10.02342230905603	0	59.83381946878809	1.044297153774237	-5.003940775557079	0	0	-0.336932930623508	-0.795940255932563	0.689488165418325	0	-12.56701489685648	0	75.79427006272641	45.08532729867101	0	0	7.099688589197251	-11.63714499978967	11.68797535547919	27.69952901810619	45.08532729867101	0	0
